# xmcd CD database file
#
# Track frame offsets:
#	150
#	23585
#	43007
#
# Disc length: 882 seconds
#
# Revision: 0
# Processed by: cddbd v1.5.1PL0 Copyright (c) Steve Scherf et al.
# Submitted via: CDex 1.51
#
DISCID=19037003
DTITLE=スガシカオ - SPIRIT
DYEAR=2000
DGENRE=JPop
TTITLE0=SPIRIT
TTITLE1=木曜日、見舞いにいく
TTITLE2=SPIRIT(backing track)
EXTD=YEAR: 2000
EXTT0=
EXTT1=
EXTT2=
PLAYORDER=
